<mxfile host="app.diagrams.net" modified="2022-02-02T13:31:18.590Z" agent="5.0 (Windows NT 10.0; Win64; x64) AppleWebKit/537.36 (KHTML, like Gecko) Chrome/97.0.4692.99 Safari/537.36" etag="lZNM1lZvnZyhk4mF2nvp" version="16.5.2" type="github">
  <diagram id="C5RBs43oDa-KdzZeNtuy" name="Page-1">
    <mxGraphModel dx="782" dy="428" grid="1" gridSize="10" guides="1" tooltips="1" connect="1" arrows="1" fold="1" page="1" pageScale="1" pageWidth="827" pageHeight="1169" math="0" shadow="0">
      <root>
        <mxCell id="WIyWlLk6GJQsqaUBKTNV-0" />
        <mxCell id="WIyWlLk6GJQsqaUBKTNV-1" parent="WIyWlLk6GJQsqaUBKTNV-0" />
        <mxCell id="WIyWlLk6GJQsqaUBKTNV-3" value="Sends connect" style="rounded=1;whiteSpace=wrap;html=1;fontSize=12;glass=0;strokeWidth=1;shadow=0;" parent="WIyWlLk6GJQsqaUBKTNV-1" vertex="1">
          <mxGeometry x="160" y="80" width="120" height="40" as="geometry" />
        </mxCell>
        <mxCell id="WIyWlLk6GJQsqaUBKTNV-7" value="Update screen" style="rounded=1;whiteSpace=wrap;html=1;fontSize=12;glass=0;strokeWidth=1;shadow=0;" parent="WIyWlLk6GJQsqaUBKTNV-1" vertex="1">
          <mxGeometry x="340" y="160" width="120" height="40" as="geometry" />
        </mxCell>
        <mxCell id="UpNs2rjb2hfZ4LCreFd8-0" value="Wait" style="ellipse;whiteSpace=wrap;html=1;" parent="WIyWlLk6GJQsqaUBKTNV-1" vertex="1">
          <mxGeometry x="180" y="170" width="80" height="50" as="geometry" />
        </mxCell>
        <mxCell id="UpNs2rjb2hfZ4LCreFd8-3" value="" style="endArrow=classic;html=1;rounded=1;entryX=0.5;entryY=0;entryDx=0;entryDy=0;exitX=1;exitY=0.5;exitDx=0;exitDy=0;" parent="WIyWlLk6GJQsqaUBKTNV-1" source="UpNs2rjb2hfZ4LCreFd8-0" target="WIyWlLk6GJQsqaUBKTNV-7" edge="1">
          <mxGeometry width="50" height="50" relative="1" as="geometry">
            <mxPoint x="340" y="310" as="sourcePoint" />
            <mxPoint x="390" y="260" as="targetPoint" />
            <Array as="points">
              <mxPoint x="290" y="195" />
              <mxPoint x="290" y="140" />
              <mxPoint x="400" y="140" />
            </Array>
          </mxGeometry>
        </mxCell>
        <mxCell id="UpNs2rjb2hfZ4LCreFd8-4" value="Recv Move_ball" style="text;html=1;strokeColor=none;fillColor=none;align=center;verticalAlign=middle;whiteSpace=wrap;rounded=0;" parent="WIyWlLk6GJQsqaUBKTNV-1" vertex="1">
          <mxGeometry x="300" y="120" width="100" height="30" as="geometry" />
        </mxCell>
        <mxCell id="UpNs2rjb2hfZ4LCreFd8-5" value="" style="endArrow=classic;html=1;rounded=1;exitX=0.5;exitY=1;exitDx=0;exitDy=0;entryX=1;entryY=1;entryDx=0;entryDy=0;" parent="WIyWlLk6GJQsqaUBKTNV-1" source="WIyWlLk6GJQsqaUBKTNV-7" target="UpNs2rjb2hfZ4LCreFd8-0" edge="1">
          <mxGeometry width="50" height="50" relative="1" as="geometry">
            <mxPoint x="340" y="310" as="sourcePoint" />
            <mxPoint x="390" y="260" as="targetPoint" />
            <Array as="points">
              <mxPoint x="400" y="213" />
              <mxPoint x="320" y="213" />
            </Array>
          </mxGeometry>
        </mxCell>
        <mxCell id="UpNs2rjb2hfZ4LCreFd8-6" value="" style="endArrow=classic;html=1;rounded=0;entryX=0.5;entryY=0;entryDx=0;entryDy=0;exitX=0.5;exitY=1;exitDx=0;exitDy=0;" parent="WIyWlLk6GJQsqaUBKTNV-1" source="WIyWlLk6GJQsqaUBKTNV-3" target="UpNs2rjb2hfZ4LCreFd8-0" edge="1">
          <mxGeometry width="50" height="50" relative="1" as="geometry">
            <mxPoint x="340" y="310" as="sourcePoint" />
            <mxPoint x="390" y="260" as="targetPoint" />
          </mxGeometry>
        </mxCell>
        <mxCell id="UpNs2rjb2hfZ4LCreFd8-24" style="edgeStyle=orthogonalEdgeStyle;rounded=1;orthogonalLoop=1;jettySize=auto;html=1;exitX=0.5;exitY=1;exitDx=0;exitDy=0;" parent="WIyWlLk6GJQsqaUBKTNV-1" source="UpNs2rjb2hfZ4LCreFd8-7" target="UpNs2rjb2hfZ4LCreFd8-23" edge="1">
          <mxGeometry relative="1" as="geometry" />
        </mxCell>
        <mxCell id="UpNs2rjb2hfZ4LCreFd8-7" value="Play" style="ellipse;whiteSpace=wrap;html=1;" parent="WIyWlLk6GJQsqaUBKTNV-1" vertex="1">
          <mxGeometry x="180" y="280" width="80" height="50" as="geometry" />
        </mxCell>
        <mxCell id="UpNs2rjb2hfZ4LCreFd8-8" value="" style="endArrow=classic;html=1;rounded=0;entryX=0.5;entryY=0;entryDx=0;entryDy=0;exitX=0.5;exitY=1;exitDx=0;exitDy=0;" parent="WIyWlLk6GJQsqaUBKTNV-1" source="UpNs2rjb2hfZ4LCreFd8-0" target="UpNs2rjb2hfZ4LCreFd8-7" edge="1">
          <mxGeometry width="50" height="50" relative="1" as="geometry">
            <mxPoint x="270" y="310" as="sourcePoint" />
            <mxPoint x="320" y="260" as="targetPoint" />
          </mxGeometry>
        </mxCell>
        <mxCell id="UpNs2rjb2hfZ4LCreFd8-9" value="Recv Send_ball" style="text;html=1;strokeColor=none;fillColor=none;align=center;verticalAlign=middle;whiteSpace=wrap;rounded=0;" parent="WIyWlLk6GJQsqaUBKTNV-1" vertex="1">
          <mxGeometry x="220" y="230" width="100" height="30" as="geometry" />
        </mxCell>
        <mxCell id="UpNs2rjb2hfZ4LCreFd8-13" value="" style="endArrow=classic;html=1;rounded=1;exitX=1;exitY=0.5;exitDx=0;exitDy=0;entryX=0;entryY=0.5;entryDx=0;entryDy=0;" parent="WIyWlLk6GJQsqaUBKTNV-1" source="UpNs2rjb2hfZ4LCreFd8-7" target="UpNs2rjb2hfZ4LCreFd8-14" edge="1">
          <mxGeometry width="50" height="50" relative="1" as="geometry">
            <mxPoint x="270" y="250" as="sourcePoint" />
            <mxPoint x="400" y="305" as="targetPoint" />
            <Array as="points">
              <mxPoint x="260" y="280" />
            </Array>
          </mxGeometry>
        </mxCell>
        <mxCell id="UpNs2rjb2hfZ4LCreFd8-19" value="" style="edgeStyle=orthogonalEdgeStyle;rounded=1;orthogonalLoop=1;jettySize=auto;html=1;entryX=1;entryY=0.5;entryDx=0;entryDy=0;exitX=1;exitY=0.5;exitDx=0;exitDy=0;" parent="WIyWlLk6GJQsqaUBKTNV-1" source="UpNs2rjb2hfZ4LCreFd8-14" target="UpNs2rjb2hfZ4LCreFd8-20" edge="1">
          <mxGeometry relative="1" as="geometry">
            <mxPoint x="620" y="280" as="targetPoint" />
          </mxGeometry>
        </mxCell>
        <mxCell id="UpNs2rjb2hfZ4LCreFd8-14" value="Move paddle &amp;amp; ball" style="rounded=1;whiteSpace=wrap;html=1;fontSize=12;glass=0;strokeWidth=1;shadow=0;" parent="WIyWlLk6GJQsqaUBKTNV-1" vertex="1">
          <mxGeometry x="400" y="260" width="120" height="40" as="geometry" />
        </mxCell>
        <mxCell id="UpNs2rjb2hfZ4LCreFd8-15" value="Press arrow" style="text;html=1;strokeColor=none;fillColor=none;align=center;verticalAlign=middle;whiteSpace=wrap;rounded=0;" parent="WIyWlLk6GJQsqaUBKTNV-1" vertex="1">
          <mxGeometry x="290" y="260" width="100" height="30" as="geometry" />
        </mxCell>
        <mxCell id="UpNs2rjb2hfZ4LCreFd8-22" style="edgeStyle=orthogonalEdgeStyle;rounded=1;orthogonalLoop=1;jettySize=auto;html=1;exitX=0;exitY=0.5;exitDx=0;exitDy=0;entryX=1;entryY=1;entryDx=0;entryDy=0;" parent="WIyWlLk6GJQsqaUBKTNV-1" source="UpNs2rjb2hfZ4LCreFd8-20" target="UpNs2rjb2hfZ4LCreFd8-7" edge="1">
          <mxGeometry relative="1" as="geometry">
            <mxPoint x="260" y="305" as="targetPoint" />
            <Array as="points">
              <mxPoint x="400" y="340" />
              <mxPoint x="248" y="340" />
            </Array>
          </mxGeometry>
        </mxCell>
        <mxCell id="UpNs2rjb2hfZ4LCreFd8-20" value="Send Move_ball" style="rounded=1;whiteSpace=wrap;html=1;fontSize=12;glass=0;strokeWidth=1;shadow=0;" parent="WIyWlLk6GJQsqaUBKTNV-1" vertex="1">
          <mxGeometry x="400" y="310" width="120" height="40" as="geometry" />
        </mxCell>
        <mxCell id="UpNs2rjb2hfZ4LCreFd8-31" style="edgeStyle=orthogonalEdgeStyle;rounded=1;orthogonalLoop=1;jettySize=auto;html=1;exitX=0.5;exitY=1;exitDx=0;exitDy=0;entryX=0.5;entryY=0;entryDx=0;entryDy=0;" parent="WIyWlLk6GJQsqaUBKTNV-1" source="UpNs2rjb2hfZ4LCreFd8-23" target="UpNs2rjb2hfZ4LCreFd8-29" edge="1">
          <mxGeometry relative="1" as="geometry" />
        </mxCell>
        <mxCell id="UpNs2rjb2hfZ4LCreFd8-23" value="Sends Disconnect" style="rounded=1;whiteSpace=wrap;html=1;fontSize=12;glass=0;strokeWidth=1;shadow=0;" parent="WIyWlLk6GJQsqaUBKTNV-1" vertex="1">
          <mxGeometry x="160" y="410" width="120" height="40" as="geometry" />
        </mxCell>
        <mxCell id="UpNs2rjb2hfZ4LCreFd8-25" value="Press r" style="text;html=1;strokeColor=none;fillColor=none;align=center;verticalAlign=middle;whiteSpace=wrap;rounded=0;rotation=-90;" parent="WIyWlLk6GJQsqaUBKTNV-1" vertex="1">
          <mxGeometry x="70" y="240" width="100" height="30" as="geometry" />
        </mxCell>
        <mxCell id="UpNs2rjb2hfZ4LCreFd8-29" value="exit" style="text;html=1;strokeColor=none;fillColor=none;align=center;verticalAlign=middle;whiteSpace=wrap;rounded=0;" parent="WIyWlLk6GJQsqaUBKTNV-1" vertex="1">
          <mxGeometry x="170" y="480" width="100" height="30" as="geometry" />
        </mxCell>
        <mxCell id="UpNs2rjb2hfZ4LCreFd8-32" value="" style="endArrow=classic;html=1;rounded=1;entryX=-0.008;entryY=0.667;entryDx=0;entryDy=0;entryPerimeter=0;exitX=0;exitY=0.5;exitDx=0;exitDy=0;" parent="WIyWlLk6GJQsqaUBKTNV-1" source="UpNs2rjb2hfZ4LCreFd8-7" target="UpNs2rjb2hfZ4LCreFd8-0" edge="1">
          <mxGeometry width="50" height="50" relative="1" as="geometry">
            <mxPoint x="360" y="340" as="sourcePoint" />
            <mxPoint x="410" y="290" as="targetPoint" />
            <Array as="points">
              <mxPoint x="130" y="305" />
              <mxPoint x="130" y="203" />
            </Array>
          </mxGeometry>
        </mxCell>
        <mxCell id="UpNs2rjb2hfZ4LCreFd8-33" value="Press q" style="text;html=1;strokeColor=none;fillColor=none;align=center;verticalAlign=middle;whiteSpace=wrap;rounded=0;" parent="WIyWlLk6GJQsqaUBKTNV-1" vertex="1">
          <mxGeometry x="200" y="360" width="100" height="30" as="geometry" />
        </mxCell>
      </root>
    </mxGraphModel>
  </diagram>
</mxfile>
